<?xml version="1.0" standalone="no"?>
<!DOCTYPE svg PUBLIC "-//W3C//DTD SVG 20010904//EN"
 "http://www.w3.org/TR/2001/REC-SVG-20010904/DTD/svg10.dtd">
<svg version="1.0" xmlns="http://www.w3.org/2000/svg"
 width="512.000000pt" height="512.000000pt" viewBox="0 0 512.000000 512.000000"
 preserveAspectRatio="xMidYMid meet">
<metadata>
Created by potrace 1.14, written by Peter Selinger 2001-2017
</metadata>
<g transform="translate(0.000000,512.000000) scale(0.100000,-0.100000)"
fill="#000000" stroke="none">
<path d="M300 4952 c-197 -65 -325 -269 -292 -462 13 -70 56 -171 83 -196 23
-21 24 -37 3 -55 -28 -23 -73 -125 -85 -193 -23 -134 26 -272 132 -370 33 -31
66 -56 73 -56 6 0 22 21 35 48 12 26 47 90 77 143 l54 96 62 -31 c51 -26 74
-31 128 -30 141 1 246 90 275 233 11 53 12 54 65 74 77 28 170 123 199 200 28
76 28 178 1 249 -12 32 -16 56 -10 62 5 6 43 31 84 56 42 25 76 52 76 61 0 51
-100 150 -179 177 -117 40 -251 -11 -328 -127 -1 -2 -24 15 -52 38 -81 68
-151 95 -256 98 -67 2 -104 -2 -145 -15z"/>
<path d="M4022 4950 c-24 -11 -57 -29 -74 -41 -33 -24 -88 -104 -88 -128 0 -9
34 -36 76 -61 41 -25 79 -50 84 -56 6 -6 2 -30 -10 -62 -27 -71 -27 -174 1
-247 35 -94 117 -169 232 -214 19 -8 27 -18 27 -36 0 -13 9 -47 19 -75 62
-163 234 -231 390 -154 l61 31 44 -76 c24 -42 59 -106 77 -143 18 -38 39 -68
46 -68 6 0 38 25 71 55 164 151 185 383 51 564 l-23 31 21 22 c35 38 71 122
84 192 10 52 10 80 0 134 -59 323 -440 462 -691 252 l-48 -40 -31 39 c-46 58
-138 101 -215 101 -39 0 -77 -8 -104 -20z"/>
<path d="M1547 3965 c-137 -52 -234 -202 -259 -400 -54 -428 297 -738 550
-486 60 59 114 162 137 258 18 75 18 222 0 298 -32 133 -114 254 -211 311 -56
33 -158 42 -217 19z"/>
<path d="M3532 3964 c-64 -24 -153 -111 -190 -187 -47 -95 -65 -177 -65 -292
0 -335 211 -559 449 -478 99 34 203 176 239 330 18 74 18 210 1 291 -29 136
-123 274 -218 323 -56 29 -157 35 -216 13z"/>
<path d="M2559 2839 c-188 -27 -351 -170 -405 -354 -42 -144 -13 -313 74 -427
95 -127 222 -197 371 -206 155 -9 271 36 382 147 158 159 193 385 88 581 -35
66 -114 151 -179 192 -85 54 -225 83 -331 67z"/>
<path d="M812 2665 c-201 -65 -350 -244 -384 -459 -16 -107 0 -205 53 -315
125 -258 415 -380 689 -288 l70 24 59 -96 c168 -272 400 -511 626 -642 404
-235 867 -235 1269 -1 215 125 429 339 597 596 43 65 79 122 81 127 2 5 32 -1
68 -12 272 -85 555 38 679 293 96 198 74 404 -62 583 -61 80 -169 160 -257
189 -71 24 -234 33 -309 16 -152 -33 -291 -138 -363 -276 -49 -93 -68 -169
-68 -272 0 -142 46 -269 133 -368 22 -25 38 -46 36 -48 -59 -45 -350 -188
-484 -236 -394 -144 -762 -166 -1147 -69 -201 51 -447 152 -624 257 -109 65
-102 57 -72 89 42 44 97 142 119 213 23 75 27 216 9 295 -47 194 -207 361
-395 410 -91 23 -234 19 -323 -10z"/>
</g>
</svg>
