<?xml version="1.0" standalone="no"?>
<!DOCTYPE svg PUBLIC "-//W3C//DTD SVG 20010904//EN"
 "http://www.w3.org/TR/2001/REC-SVG-20010904/DTD/svg10.dtd">
<svg version="1.0" xmlns="http://www.w3.org/2000/svg"
 width="512.000000pt" height="512.000000pt" viewBox="0 0 512.000000 512.000000"
 preserveAspectRatio="xMidYMid meet">
<metadata>
Created by potrace 1.14, written by Peter Selinger 2001-2017
</metadata>
<g transform="translate(0.000000,512.000000) scale(0.100000,-0.100000)"
fill="#000000" stroke="none">
<path d="M2330 5110 c-485 -48 -932 -222 -1319 -513 -117 -88 -318 -282 -423
-407 -299 -357 -493 -799 -564 -1285 -25 -168 -25 -533 0 -700 42 -276 124
-536 247 -784 129 -261 281 -470 491 -678 396 -393 877 -632 1448 -720 142
-21 528 -25 665 -5 591 85 1090 329 1494 733 404 404 648 903 733 1494 20 137
16 523 -5 665 -71 456 -231 842 -496 1193 -91 122 -284 323 -411 429 -344 288
-786 486 -1245 558 -148 23 -476 34 -615 20z m1535 -870 c9 -10 42 -26 72 -35
36 -11 66 -28 87 -49 21 -23 44 -35 71 -40 45 -6 118 -53 123 -79 4 -19 -81
-162 -103 -174 -19 -11 -57 -63 -175 -234 -65 -95 -113 -155 -137 -171 -24
-16 -49 -45 -66 -79 -15 -30 -50 -83 -77 -119 -102 -132 -141 -189 -187 -276
-26 -49 -82 -141 -124 -206 -42 -64 -85 -137 -94 -162 l-18 -46 26 -39 c30
-45 144 -183 267 -323 47 -54 110 -130 140 -170 30 -40 120 -149 201 -243 138
-162 315 -399 464 -622 50 -76 69 -113 72 -146 l5 -44 -58 -29 c-53 -25 -73
-28 -199 -34 -82 -4 -153 -12 -172 -20 -28 -12 -36 -12 -73 5 -33 15 -56 39
-107 112 -36 52 -78 104 -95 116 -16 12 -61 64 -100 117 -117 156 -288 372
-339 426 -26 28 -90 116 -142 195 -114 174 -245 344 -344 445 -40 42 -73 80
-73 85 0 5 -12 19 -26 32 -37 31 -67 95 -61 126 12 59 51 144 87 189 47 60 66
97 75 144 4 21 25 57 50 87 24 28 71 99 105 159 33 59 109 171 167 248 58 76
162 225 231 329 158 241 306 439 372 499 45 39 58 46 95 46 29 0 47 -6 60 -20z
m-2525 -68 c118 -83 262 -195 322 -251 33 -30 135 -145 227 -255 195 -233 370
-426 437 -481 25 -21 62 -62 80 -91 19 -29 51 -66 72 -81 63 -47 171 -162 178
-189 4 -16 0 -39 -10 -60 -9 -19 -16 -47 -16 -62 0 -21 -16 -43 -65 -91 -36
-35 -65 -72 -65 -83 0 -30 -17 -57 -85 -133 -34 -38 -96 -125 -138 -192 -42
-68 -118 -176 -170 -240 -52 -65 -108 -138 -123 -163 -16 -25 -92 -128 -169
-229 -227 -297 -247 -324 -312 -417 -65 -93 -202 -239 -234 -249 -10 -3 -29 1
-42 9 -21 14 -34 14 -113 3 -49 -8 -98 -18 -109 -24 -11 -6 -47 -14 -79 -18
-33 -3 -68 -11 -78 -16 -24 -13 -55 -3 -68 22 -6 10 -20 19 -31 19 -32 0 -40
39 -24 127 35 204 44 928 15 1348 -19 271 -23 842 -11 1280 7 237 17 434 21
439 5 4 38 11 74 15 39 4 72 14 84 24 13 12 36 17 78 17 39 0 72 6 94 19 19
10 52 28 73 39 55 30 107 20 187 -36z"/>
<path d="M1234 3373 c-12 -253 -11 -480 6 -1038 7 -258 14 -497 15 -530 3
-106 1 -102 31 -74 30 28 525 686 600 799 69 102 134 214 134 229 0 21 -91
110 -159 155 -41 26 -84 67 -111 102 -24 32 -91 110 -148 174 -58 63 -129 149
-158 190 -46 65 -169 180 -193 180 -5 0 -12 -84 -17 -187z"/>
</g>
</svg>
